<?xml version="1.0" encoding="utf-8"?><!-- Uploaded to: SVG Repo, www.svgrepo.com, Generator: SVG Repo Mixer Tools -->
<svg width="800px" height="800px" viewBox="-2 0 14.99 14.99" xmlns="http://www.w3.org/2000/svg">
  <path id="Path_5" data-name="Path 5" d="M181.7,837h-6.454a2.283,2.283,0,0,1-2.273-2.292V825h2.977v-.667a2.506,2.506,0,0,1,2.492-2.323v.032a2.478,2.478,0,0,1,2.491,2.291V825h3.04v9.708A2.283,2.283,0,0,1,181.7,837Zm-6.392-1.01h6.3a1.369,1.369,0,0,0,1.363-1.375V828h-9.025v6.615A1.368,1.368,0,0,0,175.309,835.99Zm4.653-11.657a1.511,1.511,0,0,0-1.52-1.375,1.482,1.482,0,0,0-1.489,1.375V825h3.009Zm-6.017,1.677V827h9.025v-.99Z" transform="translate(-172.974 -822.01)" fill="#444"/>
</svg>